GRF_file
version=1
nRows=10
nColumns=2
inDegrees=no
range 1 10
endheader
time	force
1	1.6795578736682
2	-2.03624020322191
3	-1.32511074324954
4	0.7811577284836
5	-0.892700696026785
6	1.39005105586498
7	-0.400273272801888
8	-1.96075613089387
9	-0.359898289703295
10	0.47877251360355
